<?xml version="1.0" encoding="UTF-8" standalone="no"?>
<!-- Created with Inkscape (http://www.inkscape.org/) -->

<svg
   width="100"
   height="100"
   viewBox="0 0 26.458333 26.458333"
   version="1.1"
   id="svg1"
   inkscape:version="1.4 (86a8ad7, 2024-10-11)"
   sodipodi:docname="Edit.svg"
   xmlns:inkscape="http://www.inkscape.org/namespaces/inkscape"
   xmlns:sodipodi="http://sodipodi.sourceforge.net/DTD/sodipodi-0.dtd"
   xmlns="http://www.w3.org/2000/svg"
   xmlns:svg="http://www.w3.org/2000/svg">
  <sodipodi:namedview
     id="namedview1"
     pagecolor="#ffffff"
     bordercolor="#000000"
     borderopacity="0.25"
     inkscape:showpageshadow="2"
     inkscape:pageopacity="0.0"
     inkscape:pagecheckerboard="0"
     inkscape:deskcolor="#d1d1d1"
     inkscape:document-units="mm"
     showgrid="true"
     inkscape:zoom="8"
     inkscape:cx="11.5625"
     inkscape:cy="86.6875"
     inkscape:window-width="1920"
     inkscape:window-height="1145"
     inkscape:window-x="1912"
     inkscape:window-y="-8"
     inkscape:window-maximized="1"
     inkscape:current-layer="layer1">
    <inkscape:grid
       id="grid1"
       units="px"
       originx="0"
       originy="0"
       spacingx="0.26458332"
       spacingy="0.26458332"
       empcolor="#0099e5"
       empopacity="0.30196078"
       color="#0099e5"
       opacity="0.14901961"
       empspacing="5"
       enabled="true"
       visible="true" />
  </sodipodi:namedview>
  <defs
     id="defs1">
    <inkscape:path-effect
       effect="fillet_chamfer"
       id="path-effect1"
       is_visible="true"
       lpeversion="1"
       nodesatellites_param="F,0,0,1,0,0,0,2 @ F,0,0,1,0,1.0583333,0,2 @ F,0,0,1,0,1.0583333,0,2 @ F,0,0,1,0,1.0583333,0,2 @ F,0,0,1,0,1.0583333,0,2"
       radius="4"
       unit="px"
       method="auto"
       mode="F"
       chamfer_steps="1"
       flexible="false"
       use_knot_distance="true"
       apply_no_radius="true"
       apply_with_radius="true"
       only_selected="false"
       hide_knots="false" />
  </defs>
  <g
     inkscape:label="Layer 1"
     inkscape:groupmode="layer"
     id="layer1">
    <path
       style="stroke-linejoin:round;stroke:none;fill:#000000;fill-opacity:1"
       d="m 22.490234,1.1035156 c -0.441518,1e-7 -0.883756,0.1669591 -1.216797,0.5 L 2.9257813,19.951172 C 2.361043,20.51591 1.9361524,21.203262 1.6835937,21.960937 L 0.6953125,24.925781 A 0.66152613,0.66152613 0 0 0 1.53125,25.763672 L 4.4960937,24.775391 C 5.2537697,24.522832 5.9430743,24.095988 6.5078125,23.53125 L 24.855469,5.1855469 c 0.666081,-0.6660811 0.666081,-1.7675128 0,-2.4335938 L 23.705078,1.6035156 c -0.333041,-0.3330408 -0.773325,-0.5000001 -1.214844,-0.5 z m -0.28125,1.4355469 c 0.160529,-0.1605288 0.400018,-0.1605289 0.560547,0 L 23.919922,3.6875 c 0.160528,0.1605286 0.160529,0.4019713 0,0.5625 L 5.5722656,22.595703 C 5.1527248,23.015244 4.6409981,23.331907 4.078125,23.519531 l -1.7089844,0.570313 0.5703125,-1.710938 c 0.1876244,-0.562873 0.5023341,-1.072646 0.921875,-1.492187 z"
       id="path1" />
    <path
       d="m 20.310547,3.5019531 -0.933594,0.9335938 2.644531,2.6464843 0.935547,-0.9355468 z"
       id="path2"
       style="stroke:none;fill:#000000;fill-opacity:1" />
    <path
       d="m 3.9082031,19.904297 -0.9355468,0.935547 2.6445312,2.646484 0.9355469,-0.935547 z"
       id="path3"
       style="stroke:none;fill:#000000;fill-opacity:1" />
    <path
       style="stroke-linecap:round;stroke:none;fill:#000000;fill-opacity:1"
       d="M 1.3222656,24.474609 A 0.66145998,0.66145998 0 0 0 0.66210937,25.134766 0.66145998,0.66145998 0 0 0 1.3222656,25.796875 H 25.134766 a 0.66145998,0.66145998 0 0 0 0.662109,-0.662109 0.66145998,0.66145998 0 0 0 -0.662109,-0.660157 z"
       id="path4" />
  </g>
</svg>
