# Blender 4.5.3 LTS
# www.blender.org
o Cube
v 1.000000 -1.000000 -1.000000
v 1.000000 1.000000 1.000000
v 1.000000 -1.000000 1.000000
v -1.000000 -1.000000 -1.000000
v -1.000000 1.000000 1.000000
v -1.000000 -1.000000 1.000000
vn 1.0000 -0.0000 -0.0000
vn -0.0000 -0.0000 1.0000
vn -1.0000 -0.0000 -0.0000
vn -0.0000 -1.0000 -0.0000
vn -0.0000 0.7071 -0.7071
vt 0.375000 0.750000
vt 0.375000 0.500000
vt 0.625000 0.750000
vt 0.625000 1.000000
vt 0.375000 1.000000
vt 0.125000 0.500000
vt 0.125000 0.750000
s 1
f 3/1/1 1/2/1 2/3/1
f 3/1/2 2/3/2 5/4/2 6/5/2
f 6/5/3 5/4/3 4/6/3
f 4/6/4 1/2/4 3/1/4 6/7/4
f 4/6/5 5/4/5 2/3/5 1/2/5
